<?xml version="1.0" encoding="utf-8"?>
<!-- Generator: Adobe Illustrator 22.0.1, SVG Export Plug-In . SVG Version: 6.00 Build 0)  -->
<svg version="1.1" id="Layer_1" xmlns="http://www.w3.org/2000/svg" xmlns:xlink="http://www.w3.org/1999/xlink" x="0px" y="0px"
	 viewBox="0 0 622.1 211.2" style="enable-background:new 0 0 622.1 211.2;" xml:space="preserve">
<style type="text/css">
	.st0{fill:#95BF47;}
	.st1{enable-background:new    ;}
</style>
<g>
	<path class="st0" d="M129.7,104.4L129.7,104.4L129.7,104.4z"/>
	<path class="st0" d="M129.8,104.6L129.8,104.6C129.7,104.6,129.8,104.6,129.8,104.6z"/>
	<path class="st0" d="M130.3,108.4L130.3,108.4L130.3,108.4z"/>
	<path class="st0" d="M131,113.1c-0.1-0.7-0.2-1.4-0.3-2C130.8,111.8,130.9,112.4,131,113.1z"/>
	<path class="st0" d="M136.2,147.9c0.1,1,0.3,2,0.4,3c-0.1-0.4-0.1-0.8-0.2-1.2C136.3,149.1,136.2,148.5,136.2,147.9z"/>
	<path class="st0" d="M76.8,161.8c-4.7,0.3-10.6-4.1-10.6-4.1l-2.2,9.5c0,0,5.8,6.2,16.4,5.6c8.8-0.6,14.9-7.6,14.3-17.9
		c-0.8-13.1-15.6-14.3-15.9-19.9c-0.1-1,0-5.1,6.5-5.5c4.4-0.3,8.2,1.4,8.2,1.4l3.3-12.5c0,0-2.9-1.4-8.5-1.1
		c-14.6,0.9-21.3,11.2-20.6,21.3c0.8,12,12.8,11.6,13.2,18.9C80.9,159.1,79.8,161.6,76.8,161.8z"/>
	<path class="st0" d="M54.5,116.6c0.4-2.9,0.5-2.9,3.5-3.9c0.1,0,4.3-1.3,10.3-3.2c0.6-4.6,2.9-10.5,5.9-15.3
		c4.2-6.7,9.4-10.5,14.7-10.6c2.7-0.1,5,0.8,6.7,2.7c0.1,0.1,0.2,0.3,0.4,0.4c0.3,0,0.6-0.1,0.8-0.1l0,0c4.1,0,7.4,2.3,9.7,6.7
		c0.7,1.4,1.2,2.7,1.5,3.8c2-0.6,3.2-1,3.2-1c0.3-0.1,0.9-0.2,1.5-0.1c0.1,0,0.1,0,0.2,0h0.1h0.1c0.2,0.1,0.3,0.2,0.4,0.3
		c0,0,0,0,0.1,0.1l0.1,0.1c0.1,0.1,0.2,0.2,0.3,0.3c0.2,0.2,0.4,0.4,0.6,0.6l0,0c0.2,0.2,0.3,0.3,0.5,0.5c0.1,0.1,0.2,0.2,0.3,0.3
		c0.2,0.2,0.4,0.4,0.6,0.6l0,0c0.2,0.2,0.4,0.4,0.6,0.6c1.8,1.8,3.8,3.7,3.9,3.8l0,0c0,0,0.5,0,1.3,0c0.2,0,0.4,0,0.6,0s0.3,0,0.5,0
		c0.1,0,0.2,0,0.3,0c0.1,0,0.1,0,0.2,0c2.2,0,4.9,0.1,5.1,0.1h0.1c0.2,0,0.3,0.1,0.4,0.2l0.1,0.1l0.1,0.1c0,0,0.1,0.1,0.1,0.2l0,0
		v0.1l0,0c0,0.3,3.5,23.9,6.7,45.3c0.1,0.4,0.1,0.8,0.2,1.2c0.1,0.3,0.1,0.7,0.2,1c0.1,1,0.3,1.9,0.4,2.9c0.1,0.6,0.2,1.2,0.3,1.8
		c0.2,1.2,0.3,2.3,0.5,3.4c0,0.1,0,0.2,0,0.2c0.2,1.1,0.3,2.2,0.5,3.3c0.1,0.6,0.2,1.2,0.3,1.8c0.1,0.5,0.1,1,0.2,1.5
		c0.1,0.5,0.2,1,0.2,1.6c0,0.3,0.1,0.5,0.1,0.8c0.1,0.5,0.1,0.9,0.2,1.4c0.2,1.3,0.4,2.4,0.5,3.6c0.1,0.4,0.1,0.8,0.2,1.2
		c0.3,1.8,0.5,3.5,0.7,4.8H189L94.5,0L0,180h46.3C46.6,177.7,54.2,118.7,54.5,116.6z"/>
	<path class="st0" d="M85,104.3c3.8-1.2,7.6-2.4,11.1-3.4c0-2.9-0.3-7.2-1.7-10.2c-1.5,0.6-2.8,1.7-3.8,2.7
		C88.1,96.1,86,100.2,85,104.3z"/>
	<path class="st0" d="M72,108.3c2.9-0.9,5.9-1.8,9.1-2.8c1-5.3,3.6-10.9,6.9-14.4c1.3-1.4,2.7-2.4,4.1-3.2c-0.9-0.6-1.9-0.9-3.1-0.8
		C80.9,87.3,73.8,99.9,72,108.3z"/>
	<path class="st0" d="M98,90.3c1.2,3.2,1.5,6.9,1.6,9.5c1.9-0.6,3.6-1.1,5.2-1.6C103.9,95.5,101.9,91,98,90.3z"/>
	<path class="st0" d="M134.5,136.9c-0.1-0.7-0.2-1.4-0.3-2.1C134.3,135.5,134.4,136.2,134.5,136.9z"/>
	<path class="st0" d="M134.8,138.5c0-0.1,0-0.2,0-0.2C134.7,138.4,134.8,138.5,134.8,138.5z"/>
	<path class="st0" d="M131.3,115.3c0-0.3-0.1-0.5-0.1-0.8C131.3,114.7,131.3,115,131.3,115.3z"/>
	<path class="st0" d="M136.1,147.6c-0.2-1.3-0.4-2.7-0.6-4C135.7,145,135.9,146.3,136.1,147.6z"/>
	<path class="st0" d="M135.5,143.4c-0.2-1.1-0.3-2.3-0.5-3.4C135.2,141.1,135.3,142.3,135.5,143.4z"/>
	<path class="st0" d="M133.6,130.8c0-0.3-0.1-0.6-0.1-0.9C133.5,130.2,133.6,130.5,133.6,130.8z"/>
	<path class="st0" d="M131.6,117.2c0-0.3-0.1-0.5-0.1-0.8C131.5,116.7,131.6,116.9,131.6,117.2z"/>
	<path class="st0" d="M132.2,121c0-0.3-0.1-0.6-0.1-1C132.1,120.3,132.1,120.6,132.2,121z"/>
	<path class="st0" d="M132.3,121.8C132.3,121.7,132.3,121.7,132.3,121.8C132.3,121.7,132.3,121.7,132.3,121.8z"/>
	<path class="st0" d="M133.3,128.8c0-0.2-0.1-0.5-0.1-0.7C133.3,128.3,133.3,128.6,133.3,128.8z"/>
</g>
<g class="st1">
	<path d="M232.3,161.3c3.5,2,9.5,3.4,14.4,3.4c8.1,0,12-4.2,12-9.9c0-6.4-3.9-9.5-11.3-14.3c-12-7.3-16.5-16.5-16.5-24.4
		c0-14,9.4-25.7,27.7-25.7c5.7,0,11.2,1.6,13.8,3.1l-2.7,14.7c-2.5-1.6-6.2-3-11.2-3c-7.3,0-10.8,4.4-10.8,9.1
		c0,5.2,2.6,7.9,12.1,13.7c11.6,7,15.9,15.9,15.9,25.1c0,16-11.8,26.5-29,26.5c-7,0-13.9-1.8-16.8-3.5L232.3,161.3z"/>
	<path d="M297.5,91.1v35.1h17.8V91.1h17v87.6h-17v-36.7h-17.8v36.7h-17V91.1H297.5z"/>
	<path d="M394.3,133.4c0,33-11.7,46.4-28.3,46.4c-19.9,0-27.7-21.1-27.7-45.1c0-23.9,9.5-44.6,28.9-44.6
		C388.3,90.1,394.3,113.4,394.3,133.4z M355.9,134.9c0,19.9,3.8,30,10.7,30c7.2,0,9.9-13,9.9-30.8c0-15.3-2.3-29.3-10-29.3
		C359.7,104.9,355.9,116.1,355.9,134.9z"/>
	<path d="M400.1,92.4c4.8-1,11.3-1.7,17.8-1.7c10.1,0,18.1,1.4,23.8,6.8c5.2,4.5,7.5,11.8,7.5,19.2c0,9.5-2.9,16.1-7.4,21.1
		c-5.5,5.7-14.3,8.3-21.3,8.3c-1.2,0-2.3,0-3.4,0v32.6h-17V92.4z M417.1,132.2c0.8,0.3,1.7,0.3,2.7,0.3c8.6,0,12.5-6.1,12.5-14.3
		c0-7.7-3.1-13.7-11-13.7c-1.6,0-3.1,0.3-4.2,0.6V132.2z"/>
	<path d="M454.6,92.4c4.8-1,11.3-1.7,17.8-1.7c10.1,0,18.1,1.4,23.8,6.8c5.2,4.5,7.5,11.8,7.5,19.2c0,9.5-2.9,16.1-7.4,21.1
		c-5.5,5.7-14.3,8.3-21.3,8.3c-1.2,0-2.3,0-3.4,0v32.6h-17V92.4z M471.6,132.2c0.8,0.3,1.7,0.3,2.7,0.3c8.6,0,12.5-6.1,12.5-14.3
		c0-7.7-3.1-13.7-11.1-13.7c-1.6,0-3.1,0.3-4.2,0.6V132.2z"/>
	<path d="M526.1,91.1v87.6h-17V91.1H526.1z"/>
	<path d="M573.4,140.3h-20v23.7H576v14.8h-39.7V91.1h38.1v14.8h-21.1v20.2h20V140.3z"/>
	<path d="M580.7,161.3c3.5,2,9.5,3.4,14.4,3.4c8.1,0,12-4.2,12-9.9c0-6.4-3.9-9.5-11.3-14.3c-12-7.3-16.5-16.5-16.5-24.4
		c0-14,9.4-25.7,27.7-25.7c5.7,0,11.2,1.6,13.8,3.1l-2.7,14.7c-2.5-1.6-6.2-3-11.2-3c-7.3,0-10.8,4.4-10.8,9.1
		c0,5.2,2.6,7.9,12.1,13.7c11.6,7,15.9,15.9,15.9,25.1c0,16-11.8,26.5-29,26.5c-7,0-13.9-1.8-16.8-3.5L580.7,161.3z"/>
</g>
<g class="st1">
	<path d="M234.5,42.6h-7.2v-5.1H248v5.1h-7.4v21.8h-6.1V42.6z"/>
	<path d="M265.4,37.5v10.4h10V37.5h6.1v27h-6.1V53.2h-10v11.3h-6.1v-27H265.4z"/>
	<path d="M310.9,53h-9.9v6.4H312v5h-17.2v-27h16.6v5h-10.5v5.6h9.9V53z"/>
</g>
</svg>
